<?xml version="1.0" encoding="UTF-8" standalone="no"?>
<!DOCTYPE svg PUBLIC "-//W3C//DTD SVG 1.1//EN" "http://www.w3.org/Graphics/SVG/1.1/DTD/svg11.dtd">
<svg width="100%" height="100%" viewBox="0 0 1024 1024" version="1.1" xmlns="http://www.w3.org/2000/svg" xmlns:xlink="http://www.w3.org/1999/xlink" xml:space="preserve" xmlns:serif="http://www.serif.com/" style="fill-rule:evenodd;clip-rule:evenodd;stroke-linejoin:round;stroke-miterlimit:2;">
    <g transform="matrix(1,0,0,1,-1234.8,-1.13687e-13)">
        <g id="FINISHED" transform="matrix(1,0,0,1,1234.8,1.13687e-13)">
            <rect x="0" y="0" width="1024" height="1024" style="fill:none;"/>
            <clipPath id="_clip1">
                <rect x="0" y="0" width="1024" height="1024"/>
            </clipPath>
            <g clip-path="url(#_clip1)">
                <g transform="matrix(1,0,0,1,268.8,0)">
                    <path d="M0,1024C-179.2,1024 -268.8,934.4 -268.8,755.2L-268.8,268.8C-268.8,89.6 -179.2,0 0,0L486.4,0C665.6,0 755.2,89.6 755.2,268.8L755.2,755.2C755.2,934.4 665.6,1024 486.4,1024L0,1024Z" style="fill:rgb(54,106,237);fill-rule:nonzero;"/>
                </g>
                <g transform="matrix(1,0,0,1,-61.1633,45.0696)">
                    <g transform="matrix(0.421311,0,0,1.24031,147.695,-54.3306)">
                        <path d="M53.932,804.591C12.603,796.61 -23.786,786.95 -55.235,775.612L208.424,226.081L306.691,219.462L53.932,804.591Z" style="fill:white;"/>
                    </g>
                    <g transform="matrix(1.22048,0,0,1.3017,-133.548,-68.2766)">
                        <path d="M343.957,337.779C349.881,296.886 355.805,255.993 361.729,215.1C526.387,184.485 691.045,153.871 855.703,123.256C860.495,165.006 865.286,206.757 870.077,248.507C694.704,278.264 519.33,308.021 343.957,337.779ZM885.912,386.487C891.715,437.061 897.519,487.635 903.323,538.209C703.383,565.015 503.444,591.82 303.504,618.626C310.532,569.752 317.559,520.878 324.587,472.004C511.695,443.499 698.803,414.993 885.912,386.487Z" style="fill:white;"/>
                    </g>
                </g>
            </g>
        </g>
    </g>
</svg>
